<svg width="293" height="235" viewBox="0 0 293 235" fill="none" xmlns="http://www.w3.org/2000/svg">
<rect x="17.9595" y="18.6343" width="275.04" height="216.366" fill="#303030"/>
<rect width="275.04" height="216.366" fill="#0F2B54"/>
<path d="M26.8 53.36H32.64V63.68H43.96V53.36H49.84V80H43.96V68.64H32.64V80H26.8V53.36ZM64.9528 80.6C61.6195 80.6 58.9928 79.64 57.0728 77.72C55.1795 75.8 54.2328 73.1333 54.2328 69.72C54.2328 67.5067 54.6461 65.5867 55.4728 63.96C56.2995 62.3067 57.4595 61.04 58.9528 60.16C60.4728 59.28 62.2461 58.84 64.2728 58.84C67.2595 58.84 69.5528 59.8 71.1528 61.72C72.7528 63.64 73.5528 66.4133 73.5528 70.04C73.5528 70.6533 73.5395 71.1067 73.5128 71.4H59.9128C60.1795 72.8133 60.7928 73.8933 61.7528 74.64C62.7128 75.36 64.0061 75.72 65.6328 75.72C66.6195 75.72 67.6461 75.6 68.7128 75.36C69.7795 75.0933 70.7128 74.7467 71.5128 74.32L72.4328 78.84C71.3661 79.4 70.1795 79.8267 68.8728 80.12C67.5928 80.44 66.2861 80.6 64.9528 80.6ZM68.1528 67.16C68.0728 66.0133 67.6728 65.1067 66.9528 64.44C66.2328 63.7467 65.2728 63.4 64.0728 63.4C62.9261 63.4 61.9795 63.7333 61.2328 64.4C60.5128 65.0667 60.0595 65.9867 59.8728 67.16H68.1528ZM76.4613 75.16H80.1013V55.6H76.6613V50.8H85.7413V75.16H89.3813V80H76.4613V75.16ZM91.7738 75.16H95.4138V55.6H91.9738V50.8H101.054V75.16H104.694V80H91.7738V75.16ZM117.448 80.6C115.368 80.6 113.528 80.1467 111.928 79.24C110.355 78.3333 109.128 77.0667 108.248 75.44C107.368 73.7867 106.928 71.88 106.928 69.72C106.928 67.56 107.355 65.6667 108.208 64.04C109.088 62.3867 110.315 61.1067 111.888 60.2C113.488 59.2933 115.328 58.84 117.408 58.84C119.488 58.84 121.315 59.2933 122.888 60.2C124.488 61.08 125.715 62.3333 126.568 63.96C127.448 65.5867 127.888 67.4667 127.888 69.6C127.888 71.76 127.448 73.68 126.568 75.36C125.715 77.0133 124.488 78.3067 122.888 79.24C121.315 80.1467 119.501 80.6 117.448 80.6ZM117.408 75.72C118.848 75.72 119.995 75.1733 120.848 74.08C121.728 72.96 122.168 71.4933 122.168 69.68C122.168 67.8667 121.728 66.4267 120.848 65.36C119.995 64.2667 118.848 63.72 117.408 63.72C115.968 63.72 114.808 64.2667 113.928 65.36C113.075 66.4267 112.648 67.8667 112.648 69.68C112.648 71.4933 113.075 72.96 113.928 74.08C114.808 75.1733 115.968 75.72 117.408 75.72ZM131.283 84.36C132.483 82.84 133.296 81.52 133.723 80.4L131.403 76.92C131.403 76.3067 131.563 75.7067 131.883 75.12C132.229 74.5067 132.709 74.0133 133.323 73.64C133.936 73.2667 134.629 73.08 135.403 73.08C136.549 73.08 137.523 73.4933 138.323 74.32C139.123 75.12 139.523 76.1467 139.523 77.4C139.523 78.8667 138.936 80.5333 137.763 82.4C136.589 84.2667 134.749 86.08 132.243 87.84L131.283 84.36Z" fill="#F3F2E5"/>
<path d="M50.8105 124.369L52.2551 124.097C52.7912 124.019 53.0891 124.186 53.1489 124.599C53.1668 124.722 53.1596 124.818 53.1273 124.886C45.3725 140.809 38.2253 156.348 31.6857 171.506C31.3397 172.314 30.9989 172.795 30.6633 172.948C30.6427 172.951 30.5456 173.008 30.3719 173.117C29.3978 173.658 28.7046 173.959 28.2922 174.018C27.8799 174.078 27.6546 174.121 27.6163 174.148C27.4606 174.381 27.2488 174.517 26.9807 174.556C26.7333 174.592 26.5669 174.605 26.4814 174.596C26.399 174.608 26.1499 174.56 25.7342 174.452C25.3216 174.365 25.1093 174.28 25.0973 174.197C24.9509 173.187 24.904 172.573 24.9566 172.354C25.1774 170.828 26.9612 166.359 30.308 158.948C33.6517 151.517 37.093 144.25 40.6319 137.149C44.1884 130.023 46.3871 126.021 47.2279 125.141C47.4837 124.872 47.8487 124.704 48.3229 124.635L50.8105 124.369ZM58.9341 126.728C60.0269 126.57 60.864 126.754 61.4455 127.28C62.0476 127.803 62.4188 128.55 62.5593 129.519C62.6997 130.488 62.4866 131.487 61.9201 132.516C61.3742 133.543 60.4852 134.671 59.2532 135.902C58.0388 137.11 57.1017 137.762 56.442 137.857C55.7822 137.953 55.3004 137.896 54.9965 137.688C54.7132 137.476 54.4964 137.36 54.3461 137.34C54.1958 137.32 54.0982 137.155 54.0534 136.846C54.0056 136.516 54.0552 136.277 54.2022 136.129C54.3493 135.982 54.6839 135.386 55.2063 134.342C55.7462 133.274 56.0556 132.577 56.1345 132.25C55.7598 131.988 55.5232 131.517 55.4246 130.837C55.323 130.136 55.6042 129.316 56.2681 128.378C56.9527 127.437 57.8414 126.887 58.9341 126.728ZM58.6933 169.202L57.1689 169.36L56.6122 169.44C56.3971 169.409 56.1626 169.316 55.909 169.163C55.6346 169.014 55.4297 168.907 55.294 168.842C55.1583 168.778 55.0756 168.642 55.0457 168.436C55.0128 168.209 55.04 167.816 55.1273 167.256C57.8659 157.828 60.7276 150.193 63.7121 144.35C64.0408 143.713 64.6379 143.185 65.5032 142.765C66.3862 142.321 67.2607 142.036 68.1266 141.911C68.6421 141.836 68.9581 142.201 69.0746 143.005C69.1075 143.232 69.0698 143.553 68.9616 143.968C68.8505 144.364 68.5278 145.042 67.9935 146.003C67.4592 146.965 66.8191 148.068 66.0733 149.313C65.3275 150.558 64.9046 151.272 64.8048 151.455C67.2052 148.117 69.4363 145.573 71.4981 143.822C73.5775 142.047 75.1224 141.086 76.1327 140.94C77.1636 140.791 77.9904 140.976 78.6131 141.496C79.2534 141.993 79.6229 142.581 79.7215 143.262C79.8171 143.922 79.8463 144.486 79.8089 144.954C79.7892 145.399 79.6915 145.887 79.5158 146.418C79.3371 146.928 79.1803 147.371 79.0456 147.749C78.9284 148.103 78.704 148.588 78.3723 149.204C78.0377 149.8 77.8028 150.213 77.6677 150.443C77.5533 150.67 77.2905 151.108 76.8793 151.757C76.4888 152.403 76.2774 152.76 76.2451 152.828C76.7387 152.167 77.4188 151.195 78.2854 149.911C79.1519 148.628 79.8804 147.554 80.4709 146.69C81.082 145.822 81.8549 144.837 82.7895 143.733C83.7212 142.608 84.6077 141.68 85.4488 140.948C87.4724 139.223 89.6285 138.195 91.9171 137.863C92.7005 137.75 93.3962 137.901 94.0039 138.318C94.6117 138.736 94.9664 139.295 95.068 139.996C95.1666 140.676 94.5706 142.447 93.28 145.307C91.9865 148.147 90.6959 151.007 89.4083 153.889C88.1383 156.746 87.5526 158.515 87.6512 159.195C87.7887 160.144 88.0461 160.685 88.4235 160.82C88.7979 160.934 89.2295 160.935 89.7184 160.822C90.2072 160.709 90.8516 160.289 91.6516 159.563C92.4721 158.834 93.1866 158.099 93.7949 157.358C94.7795 156.163 95.6861 155.01 96.5147 153.901C96.694 153.685 96.9074 153.56 97.1548 153.524C97.5465 153.467 97.827 153.732 97.9961 154.318C98.1652 154.904 98.2961 155.516 98.3887 156.155C98.4813 156.794 98.4837 157.247 98.3959 157.512C97.9653 158.753 96.8504 160.357 95.0512 162.323C93.2521 164.289 91.4144 165.407 89.5382 165.679C89.3114 165.712 89.1449 165.726 89.0389 165.72C86.8853 165.822 85.3275 165.458 84.3653 164.629C83.4208 163.777 82.8529 162.691 82.6617 161.371C82.4704 160.051 82.6822 158.389 83.2968 156.385C83.9321 154.377 84.6753 152.533 85.5263 150.851C86.3773 149.17 87.158 147.657 87.8683 146.312C88.5962 144.944 88.9527 144.208 88.9377 144.105C88.9228 144.002 88.8328 143.962 88.6679 143.986C88.0287 144.079 86.7555 145.316 84.8482 147.697C81.586 151.77 78.8214 155.644 76.5543 159.319C75.9582 160.29 74.5651 162.734 72.3751 166.651C72.1256 167.108 71.6606 167.386 70.9802 167.485C70.3204 167.58 69.6118 167.557 68.8543 167.414C68.0939 167.25 67.6837 166.962 67.624 166.55C67.5941 166.344 68.8149 163.22 71.2864 157.178C73.755 151.115 74.9534 147.837 74.8816 147.342C74.8069 146.826 74.4603 146.613 73.8418 146.703C73.2439 146.79 72.128 147.878 70.494 149.967C66.0008 155.712 62.6783 161.257 60.5265 166.6C60.3828 166.915 60.0877 167.421 59.6413 168.117C59.1948 168.814 58.8788 169.175 58.6933 169.202ZM158.084 110.749L159.25 110.517C159.6 110.466 160.015 110.564 160.492 110.811C160.991 111.054 161.256 111.289 161.289 111.516C161.252 111.985 159.42 116.482 155.792 125.007C144.467 151.593 138.28 166.562 137.229 169.915C137.875 169 138.595 168.085 139.389 167.17C140.206 166.273 140.666 165.817 140.769 165.802C140.893 165.784 141.025 165.828 141.167 165.933C141.312 166.06 141.393 166.185 141.411 166.309C141.432 166.453 141.364 166.642 141.209 166.875C141.053 167.108 140.522 168.016 139.614 169.6C138.731 171.202 138.064 172.341 137.615 173.016C137.169 173.712 136.778 174.432 136.444 175.175C136.133 175.936 135.844 176.483 135.576 176.817C135.33 177.147 134.99 177.344 134.557 177.406C133.299 177.589 132.158 177.196 131.134 176.229C130.133 175.279 129.579 174.433 129.471 173.691C129.262 172.248 131.508 166.175 136.209 155.474C140.931 144.769 145.15 135.748 148.865 128.41C139.893 142.762 132.491 152.403 126.658 157.332C124.635 159.056 122.922 160.02 121.52 160.224C120.84 160.322 120.131 160.225 119.394 159.932C118.677 159.636 118.121 159.211 117.725 158.658C117.35 158.102 117.052 157.061 116.83 155.535C116.606 153.989 116.946 151.687 117.851 148.63C118.752 145.552 120.006 142.223 121.613 138.643C124.456 132.253 127.131 126.75 129.641 122.134C127.24 125.029 125.163 126.603 123.41 126.857C122.606 126.974 122.054 126.938 121.753 126.75C121.47 126.539 121.065 126.218 120.54 125.789C120.032 125.337 119.735 124.811 119.649 124.213C119.559 123.595 119.592 123.095 119.747 122.715C119.923 122.332 120.091 122.034 120.249 121.821C120.849 121.019 121.242 120.541 121.431 120.387C121.619 120.233 121.857 120.136 122.146 120.094C122.455 120.049 122.617 120.078 122.632 120.181C122.644 120.264 122.55 120.414 122.35 120.633C122.171 120.848 122.089 121.007 122.104 121.11C122.119 121.214 122.24 121.249 122.467 121.216C122.693 121.183 122.975 121.09 123.31 120.936C123.643 120.761 124.066 120.489 124.581 120.12C125.114 119.727 125.589 119.374 126.007 119.061C126.442 118.724 127.085 118.22 127.935 117.55C128.782 116.859 129.423 116.345 129.859 116.008C130.315 115.668 130.957 115.091 131.786 114.276C132.633 113.438 133.265 112.862 133.683 112.549C134.38 111.985 134.979 111.761 135.481 111.878C136.002 111.992 136.402 112.06 136.679 112.083C136.976 112.103 137.237 112.16 137.461 112.254C137.703 112.324 137.927 112.418 138.134 112.535C138.838 112.896 139.236 113.386 139.325 114.005C139.412 114.602 139.215 115.347 138.733 116.238C138.272 117.125 137.24 119.222 135.635 122.528C134.027 125.814 132.217 129.591 130.204 133.862C128.209 138.108 126.479 142.075 125.013 145.761C123.568 149.443 122.91 151.728 123.038 152.615C123.083 152.924 123.188 153.067 123.353 153.043C123.518 153.019 124.068 152.529 125.003 151.572C129.91 146.503 135.981 138.792 143.217 128.439C149.163 119.936 152.637 114.707 153.637 112.751C153.951 112.159 154.281 111.743 154.625 111.503C154.99 111.261 155.564 111.083 156.347 110.969L158.084 110.749ZM182.987 141.085C183.379 141.028 183.659 141.293 183.828 141.879C183.997 142.465 184.128 143.077 184.221 143.716C184.313 144.356 184.316 144.808 184.228 145.073C183.797 146.314 182.693 147.917 180.914 149.879C179.133 151.822 177.335 152.924 175.52 153.187C174.407 153.349 173.327 153.158 172.28 152.615C171.236 152.092 170.593 150.996 170.351 149.326C170.109 147.656 170.314 145.953 170.968 144.216C166.784 151.369 163.238 155.157 160.331 155.578C159.177 155.745 158.179 155.469 157.338 154.749C156.517 154.026 156.044 153.231 155.919 152.365C155.79 151.478 155.782 150.553 155.895 149.59C156.005 148.605 156.141 147.723 156.301 146.942C156.482 146.158 156.761 145.18 157.139 144.01C157.538 142.836 157.835 141.983 158.031 141.449C158.227 140.916 158.543 140.112 158.976 139.039C159.428 137.942 160.005 136.479 160.709 134.651C161.433 132.82 162.046 131.458 162.548 130.564C163.068 129.647 163.626 129.145 164.224 129.058C164.819 128.951 165.379 129.112 165.905 129.541C166.43 129.97 166.715 130.339 166.76 130.648C166.805 130.957 166.316 132.449 165.293 135.124C162.28 143.096 160.862 147.691 161.038 148.908C161.083 149.217 161.219 149.355 161.446 149.322C162.435 149.179 164.588 146.677 167.905 141.818C171.221 136.959 173.102 133.887 173.548 132.601C173.99 131.295 174.44 130.188 174.898 129.279C175.376 128.368 175.746 127.799 176.008 127.571C176.811 126.865 177.91 126.39 179.306 126.146C179.533 126.113 179.71 126.098 179.837 126.101C179.963 126.103 180.133 126.258 180.346 126.564C180.558 126.87 180.678 127.115 180.705 127.301C180.603 127.905 180.001 129.561 178.899 132.268C177.817 134.972 177.218 136.5 177.101 136.854C175.397 142.238 174.655 145.692 174.876 147.218C175.002 148.084 175.395 148.469 176.054 148.373C177.226 148.035 178.531 146.867 179.967 144.87C180.493 144.141 181.007 143.403 181.51 142.657C182.033 141.907 182.359 141.471 182.488 141.347C182.614 141.202 182.781 141.115 182.987 141.085ZM185.752 151.357L183.71 151.211C183.104 151.236 182.553 150.926 182.06 150.282C181.93 150.111 181.852 150.007 181.825 149.968C181.778 149.933 181.75 149.885 181.741 149.823C181.732 149.761 181.741 149.675 181.767 149.566C181.79 149.437 181.83 149.273 181.885 149.076C181.938 148.857 181.98 148.641 182.012 148.426C182.233 146.899 184.853 139.488 189.874 126.193C194.894 112.898 197.532 106.043 197.787 105.627C198.06 105.187 198.257 104.875 198.377 104.689C198.515 104.479 198.668 104.299 198.836 104.149C199.024 103.995 199.156 103.892 199.233 103.839C199.33 103.782 199.507 103.694 199.763 103.572C200.036 103.427 200.31 103.283 200.584 103.138C200.878 102.99 201.178 102.809 201.484 102.597C201.787 102.363 201.996 102.207 202.111 102.127C202.223 102.027 202.371 101.963 202.557 101.936C202.763 101.906 202.962 101.972 203.154 102.134C203.366 102.292 203.494 102.516 203.535 102.805L203.567 103.021C203.52 103.428 201.538 108.704 197.619 118.85C193.721 128.993 191.599 134.543 191.254 135.498C192.769 134.626 194.912 132.705 197.681 129.735C200.45 126.766 201.786 124.867 201.687 124.039C201.608 123.209 201.81 122.569 202.293 122.12C202.775 121.671 203.325 121.402 203.944 121.312C204.583 121.22 205.151 121.359 205.646 121.729C206.16 122.075 206.476 122.735 206.596 123.707C206.713 124.658 206.353 125.952 205.517 127.589C204.677 129.205 203.617 130.749 202.335 132.218C199.569 135.356 197.197 137.51 195.22 138.681C197.544 142.954 199.789 144.934 201.954 144.62C203.105 144.285 204.409 143.117 205.867 141.116C206.413 140.385 206.939 139.656 207.444 138.93C207.947 138.184 208.251 137.74 208.357 137.598C208.483 137.453 208.67 137.363 208.917 137.327C209.309 137.27 209.589 137.535 209.759 138.121C209.928 138.707 210.059 139.319 210.151 139.959C210.244 140.598 210.246 141.05 210.158 141.315C209.728 142.557 208.623 144.159 206.845 146.122C205.063 148.064 203.265 149.166 201.451 149.429C200.152 149.618 199.085 149.52 198.251 149.135C197.416 148.751 196.758 148.425 196.278 148.158C195.797 147.891 195.289 147.512 194.755 147.021C194.218 146.51 193.768 146.091 193.404 145.764C193.062 145.435 192.647 144.969 192.16 144.366C191.693 143.76 191.358 143.335 191.154 143.091C190.947 142.826 190.634 142.408 190.215 141.837C189.813 141.243 189.587 140.918 189.536 140.862C189.276 141.679 188.983 142.563 188.658 143.516C188.333 144.468 188.04 145.352 187.779 146.169C187.519 146.986 187.28 147.736 187.064 148.42C186.844 149.083 186.661 149.636 186.514 150.078C186.389 150.518 186.317 150.749 186.299 150.773C186.203 151.123 186.021 151.318 185.752 151.357ZM227.953 120.422C228.572 120.333 229.241 120.52 229.961 120.984C230.701 121.445 231.155 122.253 231.323 123.407C231.487 124.541 231.3 126.084 230.762 128.036C230.221 129.967 229.386 131.982 228.259 134.082C227.129 136.161 225.84 138.159 224.391 140.074C222.96 141.965 221.343 143.589 219.54 144.945C217.754 146.277 216.067 147.059 214.48 147.289C212.892 147.519 211.542 147.209 210.43 146.36C209.335 145.487 208.659 144.164 208.402 142.391C208.142 140.597 208.288 138.555 208.84 136.265C209.413 133.971 210.271 131.9 211.413 130.05C212.553 128.18 213.831 126.469 215.248 124.916C218.217 121.728 220.97 119.95 223.506 119.583C224.64 119.418 225.536 119.573 226.194 120.046C226.427 120.201 226.554 120.351 226.575 120.496L226.601 120.681C226.884 120.598 227.335 120.512 227.953 120.422ZM225.426 124.988L225.209 125.02C224.488 125.124 224.051 124.651 223.898 123.599C222.465 124.312 221.013 125.407 219.543 126.883C218.073 128.359 216.811 130.036 215.757 131.915C213.608 135.679 212.681 138.729 212.978 141.065C213.145 142.219 213.651 142.735 214.497 142.613C215.342 142.49 216.519 141.751 218.028 140.396C219.537 139.041 220.956 137.214 222.286 134.916C223.637 132.615 224.605 130.654 225.191 129.032C225.794 127.387 226.057 126.297 225.98 125.76C225.899 125.204 225.714 124.946 225.426 124.988ZM261.802 91.9924L264.228 91.9566C264.744 91.8819 265.025 92.0095 265.073 92.3394C265.082 92.4012 265.06 92.5412 265.008 92.7593C259.976 103.067 254.462 115.139 248.468 128.975C248.14 129.759 247.778 130.243 247.384 130.426C247.363 130.429 247.344 130.443 247.327 130.466C247.309 130.49 247.272 130.527 247.216 130.577C247.178 130.604 247.119 130.633 247.04 130.666C246.748 130.834 246.397 130.948 245.984 131.008C245.572 131.068 245.292 131.172 245.145 131.319C244.998 131.467 244.688 131.575 244.213 131.644C243.45 131.754 243.012 131.418 242.899 130.634C242.699 129.253 243.95 125.472 246.654 119.291C249.376 113.086 252.085 107.305 254.782 101.946C257.476 96.5664 259.243 93.4369 260.084 92.5572C260.322 92.3121 260.895 92.1239 261.802 91.9924ZM238.195 143.062C238.007 141.763 238.383 140.509 239.323 139.299C240.261 138.069 241.327 137.367 242.523 137.194C243.74 137.017 244.434 137.527 244.608 138.723C244.781 139.919 244.396 141.185 243.453 142.521C242.531 143.855 241.471 144.608 240.276 144.782C239.08 144.955 238.386 144.382 238.195 143.062Z" fill="#F3F2E5"/>
</svg>
