<svg width="200" height="200" viewBox="0 0 200 200" fill="none" xmlns="http://www.w3.org/2000/svg">
<rect width="200" height="200" fill="#F3F2E5"/>
<rect x="5" y="5" width="190" height="190" stroke="#152F2D" stroke-width="10"/>
<path d="M84.2 120.18L69.82 110.3C66.33 107.91 63.48 103.36 63.48 100.2V56.38C63.48 53.22 66.33 52.59 69.82 54.99L84.2 64.87C87.68 67.27 90.54 71.82 90.54 74.98V118.76C90.54 121.96 87.68 122.58 84.2 120.18Z" fill="#152F2D"/>
<path d="M128.07 136.41L103.63 152.81C100.14 155.15 97.29 154.21 97.29 150.73V77.19C97.29 73.7 100.14 68.93 103.63 66.59L128.07 50.19C131.56 47.85 134.42 48.79 134.42 52.28V125.81C134.42 129.3 131.56 134.07 128.07 136.41Z" fill="#152F2D"/>
</svg>
